# xmcd CD database file
#
# Track frame offsets:
#	150
#	10595
#	21722
#	31895
#	42237
#	54622
#	64612
#	75535
#	86580
#	97185
#	108542
#	120857
#	130432
#	139965
#	150022
#	159197
#	170280
#	180937
#	191127
#	203702
#	214455
#	224287
#	234412
#	244485
#	254810
#	264575
#	276187
#	287017
#	298580
#	309965
#
# Disc length: 4259 seconds
#
# Revision: 1
# Processed by: cddbd v1.5PL3 Copyright (c) Steve Scherf et al.
# Submitted via: CDex 1.51
#
DISCID=b110a11e
DTITLE=Gene O'Quin - Boogie Woogie Fever
DYEAR=2000
DGENRE=Country
TTITLE0=Boogie Woogie Fever
TTITLE1=The Pinball Millionaire
TTITLE2=Mobilin' Baby Of Mine
TTITLE3=You Name It
TTITLE4=Devil On My Shoulder
TTITLE5=Too Hot To Handle
TTITLE6=I Believe In Lovin
TTITLE7=Someone's Gonna Be Lonely
TTITLE8=Texas Boogie
TTITLE9=Heads You Win
TTITLE10=Keep A-Talkin' Baby
TTITLE11=I'm Gonna Take My Baby Dancing
TTITLE12=That's My Desire
TTITLE13=I Specialize In Love
TTITLE14=No Parking Here
TTITLE15=I'll Stop Loving You
TTITLE16=It's No Wonder
TTITLE17=Come Around To Me
TTITLE18=Tired
TTITLE19=I Get The Blues
TTITLE20=I Don't Know Anything About Love
TTITLE21=Let Me Change Your Name
TTITLE22=Convicted
TTITLE23=You Played Around With My Heart
TTITLE24=Stand Back and Let Me At That Gal
TTITLE25=That Low Down Running Around
TTITLE26=I Can't Stand The Thought of Losing You
TTITLE27=Joe Joe Joe
TTITLE28=You're Smiling At Another
TTITLE29=I Searched the Crowd
EXTD=YEAR: 2000
EXTT0=
EXTT1=
EXTT2=
EXTT3=
EXTT4=
EXTT5=
EXTT6=
EXTT7=
EXTT8=
EXTT9=
EXTT10=
EXTT11=
EXTT12=
EXTT13=
EXTT14=
EXTT15=
EXTT16=
EXTT17=
EXTT18=
EXTT19=
EXTT20=
EXTT21=
EXTT22=
EXTT23=
EXTT24=
EXTT25=
EXTT26=
EXTT27=
EXTT28=
EXTT29=
PLAYORDER=
